#!OML:ASF G:\JayActor3\Patient Classification 1\Patient 1\Session 6\male.ASF
:FULLY-SPECIFIED
:DEGREES
944
root 6.72827 16.4464 -0.765834 175.756 -54.3979 -177.739
lowerback 1.09862 -1.31395 5.25142
upperback 4.93499 -2.17607 2.7411
thorax 4.41752 -1.03718 -0.166291
lowerneck -11.3136 -1.23838 0.51875
upperneck 29.743 -2.76544 -1.96005
head 11.5008 -1.92809 -1.27361
rclavicle 1.94809e-014 -1.59028e-015
rhumerus -40.0215 22.1593 -92.0851
rradius 93.168
rwrist -56.5902
rhand -17.3541 -12.8491
rfingers 7.12502
rthumb 8.89369 -42.6417
lclavicle 1.94809e-014 -1.59028e-015
lhumerus -35.2712 9.79928 82.4597
lradius 27.6947
lwrist 15.5958
lhand -14.7648 11.0583
lfingers 7.12502
lthumb 11.3915 40.7289
rfemur -10.2253 -3.50115 25.0338
rtibia 34.4597
rfoot -22.7649 -5.78368
rtoes 8.12429
lfemur -7.66614 5.34105 -11.0538
ltibia 28.8725
lfoot -18.1415 3.56976
ltoes -17.2057
945
root 6.71363 16.4421 -0.762221 175.771 -53.8635 -177.752
lowerback 1.05824 -1.31538 5.29257
upperback 4.93111 -2.18573 2.77747
thorax 4.43657 -1.04196 -0.152899
lowerneck -11.244 -1.14458 0.582067
upperneck 29.8366 -2.64269 -2.04845
head 11.5226 -1.88472 -1.3038
rclavicle -8.44835e-014 -7.63333e-014
rhumerus -39.9433 22.3252 -92.1246
rradius 93.1113
rwrist -56.4463
rhand -17.4367 -12.8484
rfingers 7.12502
rthumb 8.81392 -42.6443
lclavicle -8.44835e-014 -7.63333e-014
lhumerus -35.2573 9.8461 82.4769
lradius 27.4675
lwrist 15.5045
lhand -14.7799 10.9654
lfingers 7.12502
lthumb 11.377 40.6368
rfemur -10.2615 -3.29986 25.0119
rtibia 34.5495
rfoot -22.6976 -5.5325
rtoes 8.05223
lfemur -7.41092 5.06337 -11.0643
ltibia 28.4265
lfoot -17.729 3.14121
ltoes -17.0169
946
root 6.69873 16.4381 -0.758205 175.785 -53.3432 -177.76
lowerback 1.01353 -1.31918 5.33671
upperback 4.9184 -2.1978 2.81205
thorax 4.44852 -1.04778 -0.143103
lowerneck -11.1548 -1.05215 0.644502
upperneck 29.9301 -2.52269 -2.1379
head 11.5405 -1.84341 -1.33444
rclavicle -5.70512e-014 2.94201e-014
rhumerus -39.8838 22.4899 -92.1703
rradius 93.0595
rwrist -56.3102
rhand -17.4925 -12.8352
rfingers 7.12502
rthumb 8.76005 -42.6334
lclavicle -5.70512e-014 2.94201e-014
lhumerus -35.2398 9.88151 82.4929
lradius 27.2275
lwrist 15.4009
lhand -14.7987 10.8725
lfingers 7.12502
lthumb 11.3589 40.5449
rfemur -10.2994 -3.09131 24.9923
rtibia 34.6337
rfoot -22.6307 -5.29891
rtoes 7.98206
lfemur -7.15768 4.80554 -11.0833
ltibia 28.0247
lfoot -17.2712 2.90666
ltoes -16.5454
947
root 6.68351 16.4348 -0.753707 175.807 -52.8347 -177.775
lowerback 0.970128 -1.32553 5.3771
upperback 4.89638 -2.2118 2.8436
thorax 4.44979 -1.05468 -0.134248
lowerneck -11.0514 -0.960331 0.704852
upperneck 30.0256 -2.40385 -2.22912
head 11.5566 -1.80364 -1.36554
rclavicle -7.7526e-014 5.32743e-014
rhumerus -39.8477 22.6526 -92.2214
rradius 93.017
rwrist -56.1969
rhand -17.5014 -12.8147
rfingers 7.12502
rthumb 8.75149 -42.6132
lclavicle -7.7526e-014 5.32743e-014
lhumerus -35.2227 9.9141 82.5053
lradius 26.98
lwrist 15.2803
lhand -14.8027 10.7924
lfingers 7.12502
lthumb 11.355 40.465
rfemur -10.335 -2.87802 24.9662
rtibia 34.7062
rfoot -22.5601 -5.08145
rtoes 7.90245
lfemur -6.90659 4.5775 -11.1187
ltibia 27.6825
lfoot -16.8147 2.9104
ltoes -15.8693
948
root 6.66827 16.4322 -0.748763 175.829 -52.3381 -177.779
lowerback 0.925473 -1.33458 5.41889
upperback 4.86432 -2.22861 2.87778
thorax 4.44114 -1.06313 -0.12346
lowerneck -10.9445 -0.869251 0.764502
upperneck 30.1232 -2.2849 -2.32558
head 11.573 -1.76484 -1.39862
rclavicle -3.18055e-015 1.03368e-014
rhumerus -39.8285 22.8126 -92.2735
rradius 92.9845
rwrist -56.12
rhand -17.4848 -12.8184
rfingers 7.12502
rthumb 8.76753 -42.6162
lclavicle -3.18055e-015 1.03368e-014
lhumerus -35.208 9.94938 82.516
lradius 26.7428
lwrist 15.1469
lhand -14.8174 10.709
lfingers 7.12502
lthumb 11.3408 40.3823
rfemur -10.3758 -2.65729 24.9469
rtibia 34.7635
rfoot -22.4821 -4.88305
rtoes 7.81827
lfemur -6.67075 4.39038 -11.1555
ltibia 27.4086
lfoot -16.3968 3.13495
ltoes -15.0949
949
root 6.65313 16.4307 -0.743336 175.844 -51.855 -177.764
lowerback 0.88007 -1.34837 5.46732
upperback 4.82905 -2.25202 2.91584
thorax 4.42928 -1.07483 -0.112507
lowerneck -10.8523 -0.77678 0.825162
upperneck 30.2217 -2.16185 -2.42684
head 11.593 -1.72446 -1.43351
rclavicle -4.33351e-014 8.50798e-014
rhumerus -39.8007 22.9733 -92.3259
rradius 92.9489
rwrist -56.0689
rhand -17.5239 -12.8158
rfingers 7.12502
rthumb 8.72979 -42.6152
lclavicle -4.33351e-014 8.50798e-014
lhumerus -35.1883 9.99489 82.5227
lradius 26.5258
lwrist 15.0043
lhand -14.8159 10.6417
lfingers 7.12502
lthumb 11.3423 40.3149
rfemur -10.4189 -2.43068 24.9408
rtibia 34.8037
rfoot -22.3972 -4.70505
rtoes 7.7334
lfemur -6.45257 4.25327 -11.1843
ltibia 27.2035
lfoot -16.0562 3.5186
ltoes -14.3633
